<svg width="40" height="40" viewBox="0 0 40 40" fill="none" xmlns="http://www.w3.org/2000/svg">
<path d="M6.18999 5.07998C6.04009 5.0068 5.87162 4.98049 5.70655 5.00447C5.54148 5.02845 5.38746 5.10162 5.26458 5.21442C5.1417 5.32723 5.05566 5.47444 5.01768 5.63686C4.9797 5.79928 4.99154 5.96938 5.05166 6.12498L9.78999 18.8366C10.0694 19.587 10.0694 20.4129 9.78999 21.1633L5.05332 33.875C4.99351 34.0304 4.98183 34.2002 5.01979 34.3623C5.05775 34.5245 5.1436 34.6714 5.26619 34.7841C5.38877 34.8968 5.54243 34.9701 5.70717 34.9943C5.87192 35.0185 6.04015 34.9926 6.18999 34.92L36.19 20.7533C36.3327 20.6858 36.4533 20.5792 36.5378 20.4458C36.6222 20.3125 36.667 20.1578 36.667 20C36.667 19.8421 36.6222 19.6875 36.5378 19.5541C36.4533 19.4208 36.3327 19.3141 36.19 19.2466L6.18999 5.07998Z" stroke="#FF6A0B" stroke-width="2" stroke-linecap="round" stroke-linejoin="round"/>
<path d="M10 20H36.6667" stroke="#FF6A0B" stroke-width="2" stroke-linecap="round" stroke-linejoin="round"/>
</svg>
